<?xml version="1.0" standalone="no"?>
<!DOCTYPE svg PUBLIC "-//W3C//DTD SVG 20010904//EN"
 "http://www.w3.org/TR/2001/REC-SVG-20010904/DTD/svg10.dtd">
<svg version="1.0" xmlns="http://www.w3.org/2000/svg"
 width="512.000000pt" height="512.000000pt" viewBox="0 0 512.000000 512.000000"
 preserveAspectRatio="xMidYMid meet">

<g transform="translate(0.000000,512.000000) scale(0.100000,-0.100000)"
fill="#000000" stroke="none">
<path d="M1735 5114 c-573 -60 -1025 -275 -1361 -646 -172 -191 -295 -436
-351 -698 -26 -127 -24 -371 6 -510 64 -299 211 -570 420 -775 28 -27 51 -52
51 -56 0 -4 -88 -160 -195 -348 -198 -346 -209 -370 -184 -424 16 -34 65 -60
102 -54 18 3 259 96 537 207 l505 202 50 -11 c171 -38 288 -58 308 -54 32 8
75 51 82 83 8 34 -16 95 -43 109 -11 6 -82 24 -158 40 -77 16 -152 34 -167 40
-61 23 -98 13 -442 -125 -187 -75 -362 -145 -388 -155 -44 -18 -47 -18 -38 -1
5 9 68 120 141 247 72 126 134 242 137 257 9 46 -15 83 -94 150 -345 288 -512
789 -403 1210 142 552 682 978 1375 1084 149 23 442 23 590 0 400 -62 739
-219 995 -463 307 -292 443 -632 408 -1018 -10 -119 -10 -133 6 -157 35 -54
121 -61 165 -14 51 54 65 350 26 541 -94 461 -412 860 -876 1099 -214 111
-435 183 -679 221 -101 15 -440 28 -525 19z"/>
<path d="M3358 2980 c-635 -67 -1164 -446 -1365 -980 -166 -440 -36 -974 328
-1340 425 -428 1059 -577 1636 -384 l102 34 414 -155 c228 -85 425 -155 437
-155 31 0 76 29 89 57 23 50 11 83 -133 372 l-145 288 51 49 c77 75 172 208
221 308 237 480 133 1021 -273 1426 -162 161 -345 281 -550 361 -118 47 -288
92 -400 108 -114 15 -315 21 -412 11z m492 -243 c147 -35 219 -60 345 -122
215 -104 405 -267 529 -452 72 -109 101 -169 139 -288 82 -261 42 -555 -108
-791 -49 -78 -134 -174 -195 -221 -55 -43 -80 -80 -80 -116 0 -14 45 -116 100
-227 56 -112 99 -205 96 -207 -2 -2 -138 46 -302 107 -236 89 -305 111 -333
107 -20 -3 -88 -23 -151 -46 -156 -55 -273 -74 -445 -74 -225 1 -423 48 -622
149 -131 66 -217 127 -322 228 -113 109 -193 219 -257 351 -204 424 -120 872
228 1217 186 184 408 307 673 373 156 39 206 44 410 40 159 -3 207 -7 295 -28z"/>
</g>
</svg>
